<svg id="Capa_1" data-name="Capa 1" xmlns="http://www.w3.org/2000/svg" viewBox="0 0 337.29 180.52"><defs><style>.cls-1{fill:#a0b100;}</style></defs><path class="cls-1" d="M83.51,7.32v5.09H78.63c-3.58.06-5,1.57-5,5.16v48.5c0,10.5-5.21,18.17-15,22.06-.17.06-.34.15-.78.35,1.26.25,2.26.42,3.26.65a39.76,39.76,0,0,1,31,33.3c1.4,9.07.87,18-2.91,26.45-5.51,12.31-14.64,20.58-28.08,23.49-1.7.38-3.46.54-5.2.81H49.51c-1.66-.26-3.35-.44-5-.78a39.28,39.28,0,0,1-30.24-30.76c-.48-2.48-.77-5-1.14-7.5v-7.28c.06-.36.14-.71.2-1.07.38-2.43.57-4.91,1.18-7.27C17.79,106,25.22,96.91,37,91.39c1.14-.54,2.35-.92,3.67-1.46-1.32-.29-2.48-.5-3.6-.81-7.23-2-13-6.08-16-13.08-2.61-6.11-2.19-12.16,2.39-17.41a11.87,11.87,0,0,1,13.39-3c4.43,1.91,6.69,5.94,6.26,11.16-.34,4.16-3.67,8.85-9.77,7.44a11.9,11.9,0,0,0-2.21-.32c-2.13-.08-2.94.86-2.7,3a6.62,6.62,0,0,0,3.07,4.75,17.67,17.67,0,0,0,13,2.95C49.72,83.88,53.17,80.9,55,76a23.2,23.2,0,0,0,1.3-8.34V17.52a10,10,0,0,0-.14-1.64c-.34-2-1.34-3.12-3.3-3.29-2.29-.21-4.59-.14-6.93-.17h-2.4V7.32ZM31.93,133c.14,2.22.28,6.3.66,10.35a37.68,37.68,0,0,0,3.87,14.25A18.28,18.28,0,0,0,58.14,167C64,165.24,67.66,161,70,155.65c2.5-5.66,3.33-11.72,3.5-17.82s0-12.19-.21-18.26a40.15,40.15,0,0,0-2.6-13.23C67.87,99.21,63,94.52,55.1,93.68c-6.6-.71-12.17,1.38-16.25,6.8a29.68,29.68,0,0,0-4.77,10.33C32.25,117.45,32,124.27,31.93,133Z"/><path class="cls-1" d="M324.55,76.57c-1.62,2.12-3.11,4.36-4.9,6.34a23.4,23.4,0,0,1-15.31,7.41c-6.55.71-12.95.2-18.85-3A25,25,0,0,1,271.9,67.45c-.75-5.75-.31-11.44,2.29-16.69,4.94-9.94,12.87-15.48,24.18-15.72a26.17,26.17,0,0,1,14.37,3.43c5.91,3.54,9.19,9,10.67,15.52a61.8,61.8,0,0,1,.92,6.63c.06.4.13.79.2,1.18v2c-.4,0-.8.07-1.2.07H290.28a2.91,2.91,0,0,0-1.1,0c-.28.11-.69.46-.68.69a34.92,34.92,0,0,0,1.64,10.29c2.32,6.73,7.74,10.51,14.58,10.11A16.55,16.55,0,0,0,316,79.5c1.92-2,3.59-4.34,5.43-6.6l3.18,1.9C324.55,75.39,324.55,76,324.55,76.57ZM288.48,58.91h17c2.71,0,4.06-.92,4.39-3.35a16.5,16.5,0,0,0-1.48-10.16A9.3,9.3,0,0,0,299.78,40c-4,0-6.75,2-8.48,5.42C289.15,49.6,288.71,54.15,288.48,58.91Z"/><path class="cls-1" d="M168.57,83.41v5.18H138.1A5.52,5.52,0,0,0,136,89a20.25,20.25,0,0,1-10.34,1.57c-5-.61-8.1-3.79-10.1-8.17-.25-.52-.47-1.07-.7-1.6-1.84,1.55-3.57,3.14-5.43,4.6a23.48,23.48,0,0,1-22.34,3.67c-11.32-3.67-10.31-15.44-5.24-21.06a22.19,22.19,0,0,1,9.38-5.95,141.26,141.26,0,0,1,20-5c.83-.17,1.68-.27,2.48-.49.28-.07.68-.41.68-.63a70,70,0,0,0-.14-8.81,8.58,8.58,0,0,0-6.43-7.35,13.3,13.3,0,0,0-11.16,1.11c-1.64,1-1.78,1.72-.78,3.34a9.07,9.07,0,0,1,1.52,5.85,6.08,6.08,0,0,1-4.79,5.63,13.79,13.79,0,0,1-5.43-.06c-4.52-1.06-6.45-6-4.47-10.64,1.3-3,3.68-5,6.43-6.62a30.12,30.12,0,0,1,15.13-4.11,43.15,43.15,0,0,1,14,1.84c6.76,2,10.24,7.8,10.58,13.87.21,3.89.1,7.79.11,11.68,0,4.89.08,9.78,0,14.7-.09,4.17,2,6,5.39,6.77a11.26,11.26,0,0,0,9.15-1.7,4.93,4.93,0,0,0,2.16-4.34V48c0-3.43-1.58-5.21-5-5.62-1.08-.13-2.18-.16-3.34-.24v-5L158.58,36q.79,5.52,1.58,11c1.44-1.57,2.84-3.16,4.32-4.67A22,22,0,0,1,178,35.44c9-1,15.43,2.52,18.49,11.21.11.3.24.6.38.92,1.25-1.45,2.41-2.85,3.68-4.19,3.91-4.2,8.51-7.25,14.31-8,5.65-.74,11,.05,15.18,4.35a16.8,16.8,0,0,1,4.49,10,35.63,35.63,0,0,1,.26,4.5V77.89a4.35,4.35,0,0,0,2.84,4.41,11.8,11.8,0,0,0,9.93-.13A4.21,4.21,0,0,0,250.23,78c0-10,0-20.07,0-30.1,0-3.48-2.08-5.66-5.52-5.82H242V37.13c3.21-.16,6.43-.33,9.58-.47,3.93-.18,7.86-.33,11.78-.5,1.42-.06,1.42-.06,1.42,1.41V79c0,3.14,1.25,4.37,4.42,4.39h3.55v5H211.93v-5h3.37c3.52,0,5-1.46,5-5,0-7.57.07-15.14,0-22.71a19.66,19.66,0,0,0-1.13-6.12c-1.19-3.31-3.85-5-7.35-5.27-5.44-.46-9.35,1.84-11.83,6.65a20.1,20.1,0,0,0-2.39,9.72c.1,5.77,0,11.54,0,17.31,0,4.06,1.3,5.38,5.33,5.38h3.09V88c0,.2-.52.53-.81.54-1.7.06-3.39,0-5.08,0H174.49V83.4h3.87c3.34,0,4.68-1.25,4.69-4.55,0-8.09.08-16.18-.06-24.25-.08-4.18-1.7-7.69-5.7-9.6s-9.31-.64-12.56,3a15.63,15.63,0,0,0-4.37,11c.09,6,0,12,0,17.87a17.74,17.74,0,0,0,.09,2.19c.23,2.9,1.78,4.35,4.72,4.4C166.22,83.43,167.38,83.41,168.57,83.41ZM114.45,61.16a49.7,49.7,0,0,0-12.78,3.11C96.42,66.53,94,70.7,94.5,76.37a6.71,6.71,0,0,0,6.43,6.43,12.19,12.19,0,0,0,12.87-9.09C114.9,69.58,114.24,65.42,114.45,61.16Z"/><path class="cls-1" d="M114.44,90.43v70.5a4.31,4.31,0,0,0,2.91,4.45,15.77,15.77,0,0,0,11.51,0,4.32,4.32,0,0,0,3-4.49c-.09-10,0-19.92,0-29.88,0-3.68-2.11-5.83-5.78-5.93h-2.6v-5l22.86-1v43.59a3.44,3.44,0,0,0,3.19,3.67,2.16,2.16,0,0,0,.36,0c1.42.1,2.85,0,4.36,0v5.13H91.78v-5.08h3.13c3.47,0,5.09-1.55,5.09-5V106.84a5.62,5.62,0,0,0-5.37-5.63c-1.24-.06-2.48,0-3.79,0v-5c1.84,0,3.61,0,5.39,0,4-.12,8-.53,11.7-2.29a18.12,18.12,0,0,0,3.9-2.59A3,3,0,0,1,114.44,90.43Z"/><path class="cls-1" d="M263.75,157.87c-4.94,9.19-12.1,14.7-22.68,15.26-6.12.31-12.08-.3-17.46-3.39-8-4.52-12.36-11.42-13.28-20.5-.61-6,.07-11.78,3-17.09,4.9-8.89,12.33-14,22.64-14.47a27,27,0,0,1,14.29,2.84c6.43,3.43,10,9,11.65,15.93a42.86,42.86,0,0,1,1.13,10h-36c.07,4.8.6,9.35,2.76,13.57a13.93,13.93,0,0,0,5.26,5.66c5.14,3.07,12.3,2.35,17.34-1.68a33.06,33.06,0,0,0,6.62-7.44l.76-1.11C261.13,156.25,262.4,157,263.75,157.87ZM227,141.5c.44,0,.7.06.92.06h16a8.43,8.43,0,0,0,1.32-.13c1.9-.32,2.87-1.12,3.16-3a16.49,16.49,0,0,0-1.65-10.79,9.2,9.2,0,0,0-8.42-5,8.9,8.9,0,0,0-8.27,5.06c-2.35,4.29-2.76,9-3,13.85Z"/><path class="cls-1" d="M297.76,166.39v5.1H262.29v-4.6c0-.18.49-.48.76-.49,1.1-.06,2.2,0,3.31,0a10.77,10.77,0,0,0,2-.2,3.68,3.68,0,0,0,3.25-4V136.81a57.19,57.19,0,0,0-.14-6.28c-.43-3.8-2.52-5.51-6.35-5.57h-2.7v-4.84l21.87-1.21v15.63h.18c.51-1.44,1-2.89,1.53-4.3a19.48,19.48,0,0,1,7.61-9.49,14.23,14.23,0,0,1,13.78-1.35c5.83,2.45,7.42,10.63,3,15a6.15,6.15,0,0,1-6.59,1.58,6.31,6.31,0,0,1-4.35-5.11,7.94,7.94,0,0,1,.68-5c.4-.92,1-1.91.11-2.76s-2-.31-2.9.15a11.93,11.93,0,0,0-4.48,4.3,38.61,38.61,0,0,0-5.72,15.62,88.71,88.71,0,0,0-.74,10.42c-.12,3-.06,6.1,0,9.19a3.44,3.44,0,0,0,3.18,3.68h.55c2.13,0,4.26,0,6.43,0Z"/><path class="cls-1" d="M180.41,119.2V124c-1.09,0-2.17,0-3.26,0a10.43,10.43,0,0,0-2.48.39,2.44,2.44,0,0,0-1.79,3l0,0a11,11,0,0,0,1,2.76q6.31,11.79,12.69,23.55c.12.22.27.43.49.79,1.17-2.32,2.27-4.53,3.38-6.75l7.7-15.34c.13-.27.27-.53.39-.79,1.63-3.61.32-6.32-3.54-7.23-1.07-.24-2.17-.35-3.36-.54v-4.65h21.92v4.68a8.65,8.65,0,0,1-1,.22,8,8,0,0,0-6.43,4.79q-10.26,20.6-20.48,41.2a2.39,2.39,0,0,1-2.36,1.55c-1.84.13-2.66-.59-3.5-2.13q-11-20.41-22.13-40.73c-.42-.77-.92-1.53-1.36-2.26a5,5,0,0,0-4.59-2.56,13.26,13.26,0,0,1-1.62-.07v-4.69Z"/><path class="cls-1" d="M146.78,104.85a9,9,0,1,1-9-9,9,9,0,0,1,9,9Z"/><path class="cls-1" d="M265.67,22.24a9,9,0,1,1-9-8.95h.06A8.85,8.85,0,0,1,265.67,22Z"/></svg>