<svg id="Capa_1" data-name="Capa 1" xmlns="http://www.w3.org/2000/svg" viewBox="0 0 338.89 180.52"><defs><style>.cls-1{fill:#fff;}.cls-2{fill:#fffdfd;}</style></defs><path class="cls-1" d="M82,6.56V12.1H76.69c-3.9.07-5.5,1.71-5.5,5.62V70.5c0,11.42-5.67,19.77-16.28,24-.18.07-.36.16-.84.38,1.37.27,2.46.46,3.54.71,18.09,4.18,30.93,18,33.75,36.24,1.52,9.87.94,19.6-3.17,28.78C82.2,174,72.26,183,57.64,186.17c-1.86.41-3.77.59-5.66.88H45c-1.81-.28-3.64-.48-5.43-.85A42.73,42.73,0,0,1,6.66,152.73c-.52-2.7-.83-5.44-1.24-8.16v-7.92c.07-.39.16-.78.22-1.17.42-2.64.62-5.34,1.29-7.91,3.55-13.6,11.64-23.51,24.4-29.52,1.24-.59,2.56-1,4-1.59-1.44-.32-2.7-.54-3.92-.88-7.87-2.2-14.1-6.62-17.36-14.23-2.84-6.65-2.38-13.24,2.6-18.95a12.92,12.92,0,0,1,14.58-3.3c4.82,2.08,7.28,6.47,6.81,12.15-.37,4.52-4,9.63-10.64,8.09A12.54,12.54,0,0,0,25,79c-2.32-.09-3.2.93-2.94,3.25a7.21,7.21,0,0,0,3.34,5.17,19.28,19.28,0,0,0,14.14,3.21c5.69-.75,9.44-4,11.44-9.31a25.44,25.44,0,0,0,1.41-9.07q0-27.28,0-54.58a10.72,10.72,0,0,0-.15-1.79c-.37-2.13-1.46-3.39-3.59-3.58-2.5-.23-5-.15-7.54-.19-.87,0-1.73,0-2.62,0V6.57ZM25.87,143.29c.15,2.41.3,6.85.72,11.26a41,41,0,0,0,4.21,15.5c4.63,8.81,14.08,13,23.59,10.22,6.36-1.86,10.36-6.43,12.94-12.29,2.72-6.16,3.62-12.76,3.81-19.4s0-13.26-.23-19.87a43.62,43.62,0,0,0-2.83-14.39c-3.1-7.76-8.42-12.87-17-13.78-7.18-.77-13.24,1.5-17.68,7.4a32.37,32.37,0,0,0-5.19,11.24C26.22,126.41,25.94,133.83,25.87,143.29Z" transform="translate(-5.42 -6.56)"/><path class="cls-1" d="M344.3,81.92c-1.77,2.31-3.39,4.75-5.34,6.9-4.45,4.89-10.16,7.35-16.66,8.06-7.12.78-14.09.22-20.51-3.24C293.17,89,288.23,81.7,287,72c-.81-6.26-.33-12.45,2.5-18.16,5.37-10.82,14-16.85,26.31-17.11a28.49,28.49,0,0,1,15.64,3.73c6.43,3.85,10,9.75,11.61,16.89.54,2.37.71,4.81,1,7.22.06.43.14.86.22,1.28V68c-.44,0-.87.08-1.31.08H307a3.36,3.36,0,0,0-1.19,0c-.31.12-.75.5-.74.75a37.73,37.73,0,0,0,1.78,11.2c2.53,7.32,8.43,11.44,15.87,11a18,18,0,0,0,12.22-5.92c2.09-2.23,3.91-4.72,5.91-7.18L344.31,80C344.3,80.64,344.3,81.28,344.3,81.92ZM305.05,62.7h2c5.52,0,11,0,16.55,0,2.95,0,4.42-1,4.78-3.64A18.06,18.06,0,0,0,326.77,48c-2-3.75-5.07-5.89-9.43-5.9S310,44.25,308.11,48C305.78,52.57,305.3,57.52,305.05,62.7Z" transform="translate(-5.42 -6.56)"/><path class="cls-1" d="M174.56,89.37V95H173.2q-15.9,0-31.8,0a6.12,6.12,0,0,0-2.3.49,22,22,0,0,1-11.25,1.71c-5.47-.66-8.82-4.12-11-8.89-.27-.57-.51-1.16-.76-1.74-2,1.69-3.88,3.42-5.91,5-7.39,5.59-15.71,6.77-24.31,4-12.31-4-11.22-16.8-5.7-22.92a24.1,24.1,0,0,1,10.21-6.47,153,153,0,0,1,21.81-5.49c.9-.18,1.82-.29,2.7-.53.3-.08.73-.45.74-.69a76.43,76.43,0,0,0-.16-9.58,9.33,9.33,0,0,0-7-8A14.45,14.45,0,0,0,96.33,43.1c-1.78,1.06-1.94,1.87-.85,3.63a9.92,9.92,0,0,1,1.66,6.37,6.61,6.61,0,0,1-5.22,6.12,14.83,14.83,0,0,1-5.9-.06C81.1,58,79,52.64,81.15,47.58c1.42-3.27,4-5.4,7-7.2a32.79,32.79,0,0,1,16.46-4.48,47.28,47.28,0,0,1,15.25,2C127.21,40.13,131,46.39,131.37,53c.23,4.23.11,8.47.12,12.71,0,5.32.09,10.64,0,16-.1,4.53,2.22,6.57,5.87,7.36a12.21,12.21,0,0,0,9.95-1.85,5.36,5.36,0,0,0,2.35-4.72c0-10.56,0-21.12,0-31.68,0-3.73-1.72-5.67-5.47-6.11-1.18-.14-2.37-.18-3.64-.27V39l23.14-1.27c.58,4,1.15,8,1.72,12,1.57-1.7,3.09-3.44,4.7-5.08a24,24,0,0,1,14.76-7.49c9.78-1.06,16.79,2.75,20.12,12.2.12.33.26.66.41,1,1.36-1.57,2.62-3.1,4-4.56,4.26-4.57,9.27-7.88,15.58-8.71,6.15-.81,11.92.05,16.52,4.73a18.31,18.31,0,0,1,4.88,10.84,40.15,40.15,0,0,1,.29,4.9q0,12.9,0,25.8a4.74,4.74,0,0,0,3.08,4.8,12.88,12.88,0,0,0,10.81-.14,4.59,4.59,0,0,0,2.86-4.56c-.05-10.92,0-21.84,0-32.76,0-3.79-2.26-6.16-6-6.33-.95,0-1.91,0-3,0V39c3.5-.17,7-.36,10.43-.51,4.27-.19,8.55-.36,12.82-.54,1.54-.07,1.54-.07,1.54,1.53V84.58c0,3.41,1.36,4.75,4.81,4.77h3.86v5.48H221.74V89.35h3.67c3.83,0,5.4-1.58,5.4-5.39,0-8.24.08-16.48-.06-24.72a21.19,21.19,0,0,0-1.22-6.65c-1.3-3.61-4.19-5.42-8-5.74-5.92-.5-10.18,2-12.88,7.24a21.94,21.94,0,0,0-2.6,10.57c.11,6.28,0,12.56,0,18.84,0,4.42,1.42,5.85,5.8,5.85h3.37c0,1.73,0,3.35,0,5,0,.22-.57.58-.89.59-1.84.06-3.68,0-5.52,0H181V89.35c1.44,0,2.83,0,4.21,0,3.64,0,5.1-1.36,5.11-4.95,0-8.8.08-17.6-.07-26.39-.08-4.54-1.85-8.36-6.2-10.44s-10.13-.7-13.67,3.23a17,17,0,0,0-4.75,11.94c.09,6.48,0,13,0,19.44,0,.8,0,1.6.1,2.39.25,3.15,1.93,4.73,5.13,4.79C172,89.39,173.27,89.37,174.56,89.37ZM115.67,65.15c-4.9.71-9.54,1.51-13.91,3.39-5.71,2.46-8.37,7-7.8,13.16a7.3,7.3,0,0,0,7,7,13.26,13.26,0,0,0,14-9.89C116.16,74.32,115.44,69.79,115.67,65.15Z" transform="translate(-5.42 -6.56)"/><path class="cls-1" d="M115.66,97v2.2q0,37.26,0,74.52a4.67,4.67,0,0,0,3.16,4.84,17.1,17.1,0,0,0,12.53,0,4.69,4.69,0,0,0,3.26-4.88c-.09-10.84,0-21.68,0-32.52,0-4-2.29-6.34-6.29-6.45-.88,0-1.76,0-2.83,0v-5.45l24.88-1.13v46.35c0,.36,0,.72,0,1.08a3.74,3.74,0,0,0,3.86,4c1.55.1,3.1,0,4.75,0v5.58H91v-5.53H94.4c3.78,0,5.54-1.69,5.54-5.47q0-29.64,0-59.28a6.1,6.1,0,0,0-5.84-6.12c-1.35-.07-2.7,0-4.12,0v-5.43c2,0,3.92.05,5.86,0,4.37-.14,8.72-.58,12.73-2.5A20.13,20.13,0,0,0,112.82,98,3.27,3.27,0,0,1,115.66,97Z" transform="translate(-5.42 -6.56)"/><path class="cls-1" d="M278.14,170.39c-5.38,10-13.17,16-24.69,16.61-6.66.34-13.14-.33-19-3.69C225.79,178.39,221,170.88,220,161c-.66-6.5.08-12.82,3.27-18.6,5.33-9.67,13.42-15.2,24.63-15.74a29.35,29.35,0,0,1,15.55,3.09c7,3.73,10.87,9.79,12.68,17.33A46.37,46.37,0,0,1,277.36,158H238.2c.07,5.22.65,10.17,3,14.76a15.11,15.11,0,0,0,5.73,6.16c5.59,3.34,13.38,2.56,18.87-1.82A36.47,36.47,0,0,0,273,169l.83-1.21C275.28,168.63,276.67,169.48,278.14,170.39Zm-39.95-17.81c.48,0,.76.06,1,.06,5.8,0,11.59,0,17.39,0a8.55,8.55,0,0,0,1.43-.14c2.07-.35,3.13-1.22,3.44-3.27a18,18,0,0,0-1.79-11.74A10,10,0,0,0,250.5,132a9.68,9.68,0,0,0-9,5.51C238.94,142.17,238.49,147.29,238.19,152.58Z" transform="translate(-5.42 -6.56)"/><path class="cls-2" d="M315.14,179.66v5.55H276.55c0-1.67,0-3.33,0-5,0-.2.53-.52.82-.54,1.2-.06,2.4,0,3.6,0a11.76,11.76,0,0,0,2.14-.21,4,4,0,0,0,3.53-4.4q0-13.8,0-27.59a59.8,59.8,0,0,0-.15-6.83c-.47-4.13-2.74-6-6.91-6.06-.95,0-1.9,0-2.94,0v-5.27L300.44,128v17l.2,0c.55-1.56,1.05-3.14,1.66-4.67A21.23,21.23,0,0,1,310.58,130a15.49,15.49,0,0,1,15-1.47c6.34,2.67,8.08,11.57,3.28,16.28a6.72,6.72,0,0,1-7.18,1.72,6.9,6.9,0,0,1-4.73-5.56,8.72,8.72,0,0,1,.74-5.48c.44-1,1.14-2.07.12-3s-2.15-.34-3.15.16a13,13,0,0,0-4.88,4.68,41.89,41.89,0,0,0-6.22,17,97.3,97.3,0,0,0-.81,11.34c-.13,3.31-.06,6.64,0,10a3.74,3.74,0,0,0,4.06,4c2.32.05,4.64,0,7,0Z" transform="translate(-5.42 -6.56)"/><path class="cls-1" d="M187.44,128.31v5.19c-1.18,0-2.36-.05-3.54,0a11.62,11.62,0,0,0-2.7.43,2.65,2.65,0,0,0-1.93,3.26,12,12,0,0,0,1.07,3q6.87,12.84,13.81,25.63c.13.24.29.47.53.86,1.27-2.52,2.47-4.93,3.68-7.34l8.38-16.7c.14-.29.29-.57.42-.86,1.78-3.92.35-6.87-3.85-7.86-1.16-.27-2.36-.39-3.66-.59v-5.06h23.86v5.09a9.3,9.3,0,0,1-1.1.24,8.66,8.66,0,0,0-7,5.21q-11.16,22.41-22.28,44.84a2.61,2.61,0,0,1-2.57,1.68c-2,.14-2.9-.64-3.81-2.32-8-14.81-16-29.56-24.08-44.32-.46-.84-1-1.66-1.48-2.46a5.48,5.48,0,0,0-5-2.78c-.55,0-1.11,0-1.76-.08v-5.1Z" transform="translate(-5.42 -6.56)"/><path class="cls-1" d="M150.85,112.7a9.77,9.77,0,1,1-9.78-9.83A9.78,9.78,0,0,1,150.85,112.7Z" transform="translate(-5.42 -6.56)"/><path class="cls-1" d="M280.22,22.8a9.77,9.77,0,1,1-9.74-9.74A9.63,9.63,0,0,1,280.22,22.8Z" transform="translate(-5.42 -6.56)"/></svg>