<?xml version="1.0" encoding="utf-8"?>
<!-- Generator: Adobe Illustrator 24.0.3, SVG Export Plug-In . SVG Version: 6.00 Build 0)  -->
<svg version="1.1" id="Capa_1" xmlns="http://www.w3.org/2000/svg" xmlns:xlink="http://www.w3.org/1999/xlink" x="0px" y="0px"
	 viewBox="0 0 349.68 193.73" style="enable-background:new 0 0 349.68 193.73;" xml:space="preserve">
<g>
	<path d="M81.81,6.1c0,1.79,0,3.58,0,5.54c-1.44,0-2.7,0-3.97,0c-0.44,0-0.88-0.01-1.32,0c-3.9,0.07-5.5,1.71-5.5,5.62
		c0,17.59,0,35.18,0,52.78c0,11.42-5.67,19.77-16.28,23.99c-0.18,0.07-0.36,0.16-0.84,0.38c1.37,0.27,2.46,0.46,3.54,0.71
		c18.09,4.18,30.93,17.96,33.75,36.24c1.52,9.87,0.94,19.6-3.17,28.78c-5.99,13.42-15.93,22.36-30.55,25.57
		c-1.86,0.41-3.77,0.59-5.66,0.88c-2.32,0-4.64,0-6.96,0c-1.81-0.28-3.64-0.48-5.43-0.85c-16.48-3.4-29.72-16.84-32.93-33.47
		c-0.52-2.7-0.83-5.44-1.24-8.16c0-2.64,0-5.28,0-7.92c0.07-0.39,0.16-0.78,0.22-1.17c0.42-2.64,0.62-5.34,1.29-7.91
		c3.55-13.6,11.64-23.51,24.4-29.52c1.24-0.59,2.56-1.02,4.01-1.59c-1.44-0.32-2.7-0.54-3.92-0.88c-7.87-2.2-14.1-6.62-17.36-14.23
		c-2.84-6.65-2.38-13.24,2.6-18.95c3.58-4.11,9.71-5.41,14.58-3.3c4.82,2.08,7.28,6.47,6.81,12.15c-0.37,4.52-4.03,9.63-10.64,8.09
		c-0.77-0.18-1.57-0.31-2.37-0.34c-2.32-0.09-3.2,0.93-2.94,3.25c0.26,2.28,1.55,3.91,3.34,5.17c4.26,3.01,9.05,3.88,14.14,3.21
		c5.69-0.75,9.44-4,11.44-9.31c1.1-2.92,1.41-5.98,1.41-9.07c0.01-18.19,0.01-36.38,0-54.58c0-0.6-0.05-1.2-0.15-1.79
		c-0.37-2.13-1.46-3.39-3.59-3.58c-2.5-0.23-5.03-0.15-7.54-0.19c-0.87-0.02-1.73,0-2.62,0c0-1.96,0-3.75,0-5.54
		C52.85,6.1,67.33,6.1,81.81,6.1z M25.7,142.83c0.15,2.41,0.3,6.85,0.72,11.26c0.51,5.39,1.65,10.64,4.21,15.5
		c4.63,8.81,14.08,12.99,23.59,10.22c6.36-1.86,10.36-6.43,12.94-12.29c2.72-6.16,3.62-12.76,3.81-19.4
		c0.19-6.62,0.05-13.26-0.23-19.87c-0.21-4.91-0.99-9.77-2.83-14.39c-3.1-7.76-8.42-12.87-16.99-13.78
		c-7.18-0.77-13.24,1.5-17.68,7.4c-2.54,3.37-4.1,7.21-5.19,11.24C26.05,125.95,25.77,133.37,25.7,142.83z"/>
	<path d="M344.13,81.46c-1.77,2.31-3.39,4.75-5.34,6.9c-4.45,4.89-10.16,7.35-16.66,8.06c-7.12,0.78-14.09,0.22-20.51-3.24
		c-8.62-4.65-13.56-11.94-14.81-21.66c-0.81-6.26-0.33-12.45,2.5-18.16c5.37-10.82,14-16.85,26.31-17.11
		c5.54-0.12,10.83,0.85,15.64,3.73c6.43,3.85,9.98,9.75,11.61,16.89c0.54,2.37,0.71,4.81,1.05,7.22c0.06,0.43,0.14,0.86,0.22,1.28
		c0,0.72,0,1.44,0,2.16c-0.44,0.03-0.87,0.08-1.31,0.08c-12,0.01-24,0-36,0.01c-0.4,0-0.84-0.1-1.19,0.04
		c-0.31,0.12-0.75,0.5-0.74,0.75c0.13,3.8,0.52,7.57,1.78,11.2c2.53,7.32,8.43,11.44,15.87,10.96c4.85-0.32,8.94-2.42,12.22-5.92
		c2.09-2.23,3.91-4.72,5.91-7.18c1.08,0.65,2.27,1.37,3.46,2.08C344.13,80.18,344.13,80.82,344.13,81.46z M304.88,62.24
		c0.78,0,1.37,0,1.97,0c5.52,0,11.04,0.01,16.55-0.01c2.95-0.01,4.42-1.03,4.78-3.64c0.52-3.82,0.25-7.61-1.58-11.09
		c-1.98-3.75-5.07-5.89-9.43-5.9c-4.35-0.01-7.33,2.19-9.23,5.94C305.61,52.11,305.13,57.06,304.88,62.24z"/>
	<path d="M174.39,88.91c0,1.9,0,3.67,0,5.59c-0.5,0-0.93,0-1.36,0c-10.6,0-21.2-0.01-31.8,0.02c-0.77,0-1.58,0.19-2.3,0.49
		c-3.62,1.5-7.38,2.19-11.25,1.71c-5.47-0.66-8.82-4.12-11.04-8.89c-0.27-0.57-0.51-1.16-0.76-1.74c-2,1.69-3.88,3.42-5.91,4.95
		c-7.39,5.59-15.71,6.77-24.31,3.95c-12.31-4.04-11.22-16.8-5.7-22.92c2.81-3.12,6.31-5.09,10.21-6.47
		c7.1-2.52,14.44-4.04,21.81-5.49c0.9-0.18,1.82-0.29,2.7-0.53c0.3-0.08,0.73-0.45,0.74-0.69c0.01-3.2,0.23-6.43-0.16-9.58
		c-0.51-4.08-3.06-6.82-6.98-8.04c-4.2-1.31-8.3-0.9-12.12,1.37c-1.78,1.06-1.94,1.87-0.85,3.63c1.22,1.96,1.89,4.03,1.66,6.37
		c-0.3,3.01-2.26,5.6-5.22,6.12c-1.91,0.34-4.03,0.39-5.9-0.06c-4.92-1.18-7.06-6.52-4.87-11.58c1.42-3.27,4.04-5.4,6.98-7.2
		c5.05-3.09,10.64-4.3,16.46-4.48c5.18-0.16,10.25,0.5,15.25,2.01c7.37,2.22,11.17,8.48,11.53,15.05c0.23,4.23,0.11,8.47,0.12,12.71
		c0.01,5.32,0.09,10.64-0.02,15.96c-0.1,4.53,2.22,6.57,5.87,7.36c3.54,0.77,6.93,0.26,9.95-1.85c1.62-1.13,2.36-2.72,2.35-4.72
		c-0.03-10.56-0.01-21.12-0.01-31.68c0-3.73-1.72-5.67-5.47-6.11c-1.18-0.14-2.37-0.18-3.64-0.27c0-1.78,0-3.51,0-5.37
		c7.63-0.42,15.24-0.83,23.14-1.27c0.58,4.04,1.15,8.03,1.72,12.04c1.57-1.7,3.09-3.44,4.7-5.08c4.08-4.14,8.9-6.85,14.76-7.49
		c9.78-1.06,16.79,2.75,20.12,12.2c0.12,0.33,0.26,0.66,0.41,1.04c1.36-1.57,2.62-3.1,3.98-4.56c4.26-4.57,9.27-7.88,15.58-8.71
		c6.15-0.81,11.92,0.05,16.52,4.73c2.95,3,4.34,6.75,4.88,10.84c0.21,1.62,0.28,3.27,0.29,4.9c0.03,8.6,0.04,17.2-0.01,25.8
		c-0.01,2.35,1.01,3.92,3.08,4.8c3.6,1.53,7.25,1.5,10.81-0.14c1.89-0.87,2.87-2.34,2.86-4.56c-0.05-10.92-0.02-21.84-0.02-32.76
		c0-3.79-2.26-6.16-6.04-6.33c-0.95-0.04-1.91-0.01-2.97-0.01c0-1.85,0-3.61,0-5.45c3.5-0.17,6.96-0.36,10.43-0.51
		c4.27-0.19,8.55-0.36,12.82-0.54c1.54-0.07,1.54-0.07,1.54,1.53c0,15.04,0,30.08,0,45.12c0,3.41,1.36,4.75,4.81,4.77
		c1.27,0,2.54,0,3.86,0c0,1.88,0,3.62,0,5.48c-22.02,0-43.99,0-66.05,0c0-1.76,0-3.54,0-5.48c1.22,0,2.44,0,3.67,0
		c3.83-0.01,5.4-1.58,5.4-5.39c0-8.24,0.08-16.48-0.06-24.72c-0.04-2.23-0.47-4.56-1.22-6.65c-1.3-3.61-4.19-5.42-7.98-5.74
		c-5.92-0.5-10.18,1.96-12.88,7.24c-1.7,3.33-2.67,6.78-2.6,10.57c0.11,6.28,0.03,12.56,0.03,18.84c0,4.42,1.42,5.85,5.8,5.85
		c1.07,0,2.14,0,3.37,0c0,1.73,0.03,3.35-0.04,4.97c-0.01,0.22-0.57,0.58-0.89,0.59c-1.84,0.06-3.68,0.03-5.52,0.03
		c-8.76,0-17.52,0-26.28,0c-0.51,0-1.02,0-1.59,0c0-1.92,0-3.69,0-5.59c1.44,0,2.83,0.01,4.21,0c3.64-0.02,5.1-1.36,5.11-4.95
		c0.03-8.8,0.08-17.6-0.07-26.39c-0.08-4.54-1.85-8.36-6.2-10.44c-4.28-2.05-10.13-0.7-13.67,3.23c-3.03,3.37-4.82,7.26-4.75,11.94
		c0.09,6.48,0.02,12.96,0.03,19.44c0,0.8,0.04,1.6,0.1,2.39c0.25,3.15,1.93,4.73,5.13,4.79C171.87,88.93,173.1,88.91,174.39,88.91z
		 M115.5,64.69c-4.9,0.71-9.54,1.51-13.91,3.39c-5.71,2.46-8.37,6.98-7.8,13.16c0.37,3.96,3.12,6.71,6.96,6.95
		c6.63,0.41,12.11-3.48,13.95-9.89C115.99,73.86,115.27,69.33,115.5,64.69z"/>
	<path d="M115.49,96.57c0,0.77,0,1.49,0,2.2c0,24.84,0.02,49.68-0.02,74.52c0,2.43,1.03,4.03,3.16,4.84c4.15,1.59,8.38,1.58,12.53,0
		c2.16-0.82,3.28-2.37,3.26-4.88c-0.09-10.84-0.04-21.68-0.04-32.52c0-3.99-2.29-6.34-6.29-6.45c-0.88-0.03-1.76,0-2.83,0
		c0-0.92,0-1.78,0-2.64c0-0.88,0-1.76,0-2.81c8.28-0.37,16.51-0.75,24.88-1.13c0,0.65,0,1.12,0,1.59c0,14.92,0,29.84,0,44.76
		c0,0.36-0.01,0.72,0.01,1.08c0.09,2.44,1.39,3.84,3.86,4c1.55,0.1,3.1,0.02,4.75,0.02c0,1.92,0,3.7,0,5.58c-22.59,0-45.2,0-67.92,0
		c0-1.76,0-3.54,0-5.53c1.11,0,2.25,0,3.39,0c3.78,0,5.54-1.69,5.54-5.47c0.02-19.76,0.01-39.52,0-59.28c0-3.3-2.53-5.94-5.84-6.12
		c-1.35-0.07-2.7-0.01-4.12-0.01c0-1.81,0-3.46,0-5.43c1.97,0,3.92,0.05,5.86-0.01c4.37-0.14,8.72-0.58,12.73-2.5
		c1.53-0.73,2.95-1.75,4.25-2.85C113.48,96.81,114.24,96.41,115.49,96.57z"/>
	<path d="M277.97,169.93c-5.38,9.95-13.17,16.02-24.69,16.61c-6.66,0.34-13.14-0.33-19.03-3.69c-8.63-4.92-13.41-12.43-14.41-22.31
		c-0.66-6.5,0.08-12.82,3.27-18.6c5.33-9.67,13.42-15.2,24.63-15.74c5.43-0.26,10.7,0.5,15.55,3.09
		c6.99,3.73,10.87,9.79,12.68,17.33c0.85,3.54,1.22,7.14,1.22,10.93c-13.08,0-26.05,0-39.16,0c0.07,5.22,0.65,10.17,3,14.76
		c1.32,2.57,3.23,4.66,5.73,6.16c5.59,3.34,13.38,2.56,18.87-1.82c2.88-2.3,5.11-5.15,7.17-8.16c0.27-0.39,0.53-0.78,0.83-1.21
		C275.11,168.17,276.5,169.02,277.97,169.93z M238.02,152.12c0.48,0.03,0.76,0.06,1.03,0.06c5.8,0,11.59,0.01,17.39,0
		c0.48,0,0.96-0.06,1.43-0.14c2.07-0.35,3.13-1.22,3.44-3.27c0.61-4.08,0.26-8.08-1.79-11.74c-1.98-3.55-5.06-5.47-9.19-5.47
		c-4.12-0.01-7.08,1.96-9.01,5.51C238.77,141.71,238.32,146.83,238.02,152.12z"/>
	<path d="M314.97,179.2c0,1.97,0,3.72,0,5.55c-12.84,0-25.61,0-38.59,0c0-1.67-0.03-3.33,0.04-4.99c0.01-0.2,0.53-0.52,0.82-0.54
		c1.2-0.06,2.4,0,3.6-0.04c0.72-0.02,1.44-0.06,2.14-0.21c2.42-0.53,3.53-1.92,3.53-4.4c0.01-9.2,0.01-18.4,0-27.59
		c0-2.28,0.11-4.57-0.15-6.83c-0.47-4.13-2.74-6.02-6.91-6.06c-0.95-0.01-1.9,0-2.94,0c0-1.78,0-3.44,0-5.27
		c7.86-0.41,15.74-0.83,23.76-1.25c0,5.75,0,11.39,0,17.04c0.07,0.01,0.14,0.01,0.2,0.02c0.55-1.56,1.05-3.14,1.66-4.67
		c1.72-4.3,4.33-7.93,8.28-10.44c4.73-3.01,9.79-3.65,14.99-1.47c6.34,2.67,8.08,11.57,3.28,16.28c-2.03,1.99-4.48,2.6-7.18,1.72
		c-2.66-0.87-4.16-2.85-4.73-5.56c-0.4-1.91-0.05-3.72,0.74-5.48c0.44-0.97,1.14-2.07,0.12-2.98c-0.98-0.87-2.15-0.34-3.15,0.16
		c-2.09,1.06-3.61,2.76-4.88,4.68c-3.41,5.16-5.29,10.93-6.22,16.96c-0.58,3.73-0.67,7.55-0.81,11.34
		c-0.13,3.31-0.06,6.64-0.01,9.96c0.04,2.56,1.5,3.99,4.06,4.04c2.32,0.05,4.64,0.01,6.96,0.02
		C314.01,179.2,314.44,179.2,314.97,179.2z"/>
	<path d="M187.27,127.85c0,1.67,0,3.29,0,5.19c-1.18,0-2.36-0.05-3.54,0.02c-0.91,0.05-1.84,0.17-2.7,0.43
		c-1.5,0.46-2.27,1.73-1.93,3.26c0.23,1.04,0.57,2.09,1.07,3.03c4.58,8.56,9.2,17.09,13.81,25.63c0.13,0.24,0.29,0.47,0.53,0.86
		c1.27-2.52,2.47-4.93,3.68-7.34c2.79-5.57,5.59-11.13,8.38-16.7c0.14-0.29,0.29-0.57,0.42-0.86c1.78-3.92,0.35-6.87-3.85-7.86
		c-1.16-0.27-2.36-0.39-3.66-0.59c0-1.59,0-3.28,0-5.06c7.92,0,15.85,0,23.86,0c0,1.69,0,3.35,0,5.09c-0.35,0.08-0.72,0.2-1.1,0.24
		c-3.33,0.4-5.52,2.31-6.97,5.21c-7.44,14.94-14.89,29.88-22.28,44.84c-0.59,1.19-1.22,1.58-2.57,1.68
		c-1.99,0.14-2.9-0.64-3.81-2.32c-7.97-14.81-16.04-29.56-24.08-44.32c-0.46-0.84-0.97-1.66-1.48-2.46
		c-1.16-1.81-2.77-2.83-4.98-2.78c-0.55,0.01-1.11-0.04-1.76-0.08c0-1.7,0-3.35,0-5.1C165.27,127.85,176.24,127.85,187.27,127.85z"
		/>
	<path d="M150.68,112.24c0.01,5.35-4.31,9.71-9.63,9.71c-5.57,0-9.87-4.21-9.9-9.68c-0.03-5.49,4.24-9.81,9.75-9.86
		C146.27,102.36,150.68,106.79,150.68,112.24z"/>
	<path d="M280.05,22.34c0.02,5.5-4.26,9.77-9.8,9.77c-5.45,0-9.73-4.28-9.73-9.72c0-5.49,4.29-9.78,9.79-9.79
		C275.7,12.58,280.03,16.92,280.05,22.34z"/>
	<path d="M290.07,105.92c0,3.64,0,7.13,0,10.69c-0.7,0-1.32,0-2.04,0c0-2.27,0-4.49,0-6.71c-0.09-0.03-0.17-0.05-0.26-0.07
		c-0.31,0.72-0.63,1.44-0.94,2.16c-0.5,1.17-1.05,2.33-1.49,3.53c-0.29,0.81-0.67,1.17-1.61,1.2c-1.01,0.03-1.18-0.57-1.44-1.24
		c-0.71-1.8-1.42-3.6-2.39-5.35c0,2.13,0,4.25,0,6.47c-0.72,0-1.29,0-1.95,0c0-3.51,0-7.01,0-10.66c0.71,0,1.43-0.09,2.11,0.04
		c0.32,0.06,0.69,0.48,0.83,0.82c0.99,2.3,1.92,4.63,3,7.25c0.44-0.98,0.78-1.71,1.09-2.44c0.63-1.47,1.31-2.92,1.85-4.42
		c0.35-0.97,0.86-1.45,1.92-1.26C289.14,105.98,289.55,105.92,290.07,105.92z"/>
	<path d="M253.89,115.72c0.32-0.64,0.62-1.23,0.85-1.69c1.25,0.31,2.35,0.71,3.47,0.8c0.54,0.04,1.12-0.51,1.68-0.79
		c-0.36-0.46-0.63-1.06-1.09-1.37c-0.99-0.66-2.14-1.1-3.12-1.77c-1.95-1.33-1.76-3.65,0.38-4.65c2.15-1.01,4.28-0.55,6.54,0.37
		c-0.29,0.6-0.56,1.15-0.87,1.78c-0.78-0.2-1.54-0.4-2.3-0.57c-0.27-0.06-0.6-0.19-0.82-0.1c-0.58,0.23-1.13,0.57-1.69,0.86
		c0.37,0.41,0.68,0.92,1.13,1.22c0.97,0.63,2.02,1.12,3.02,1.72c1.04,0.62,1.38,1.6,1.25,2.77c-0.13,1.18-0.85,1.87-1.9,2.24
		C258.15,117.32,256.03,116.83,253.89,115.72z"/>
	<path d="M322.64,116.6c0-3.57,0-7.03,0-10.58c2.41,0,4.77,0,7.2,0c0,0.51,0,0.97,0,1.57c-1.6,0-3.17,0-4.84,0c0,0.94,0,1.75,0,2.69
		c1.3,0,2.6,0,3.94,0c0,0.64,0,1.15,0,1.8c-1.3,0-2.59,0-3.96,0c0,0.96,0,1.78,0,2.78c1.63,0,3.28,0,4.99,0c0,0.67,0,1.17,0,1.75
		C327.53,116.6,325.16,116.6,322.64,116.6z"/>
	<path d="M171.4,106.06c-1.35,1.75-2.62,3.38-3.93,5.08c1.36,1.77,2.71,3.53,4.08,5.33c-1.97,0.5-2.33,0.37-3.42-1.05
		c-0.89-1.17-1.8-2.32-2.97-3.43c0,0.94,0,1.87,0,2.81c0,2.03,0.01,2.03-2.14,1.77c0-3.48,0-6.97,0-10.56c0.63,0,1.28,0,2.11,0
		c0,1.47,0,2.96,0,4.44c0.1,0.03,0.19,0.06,0.29,0.09c0.77-1.04,1.65-2.01,2.28-3.12C168.55,105.96,169.7,105.66,171.4,106.06z"/>
	<path d="M179.16,114.91c1.78,0,3.4,0,5.08,0c0,0.62,0,1.12,0,1.7c-2.43,0-4.81,0-7.29,0c0-3.5,0-6.99,0-10.59c2.29,0,4.62,0,7.03,0
		c0,0.5,0,0.98,0,1.59c-1.6,0-3.14,0-4.79,0c0,0.92,0,1.73,0,2.66c1.3,0,2.56,0,3.89,0c0,0.65,0,1.18,0,1.85c-1.33,0-2.59,0-3.92,0
		C179.16,113.08,179.16,113.9,179.16,114.91z"/>
	<path d="M190.08,116.58c0-3.56,0-7.03,0-10.58c2.38,0,4.71,0,7.1,0c0,0.51,0,0.98,0,1.6c-1.57,0-3.14,0-4.79,0
		c0,0.93,0,1.71,0,2.61c1.28,0,2.53,0,3.89,0c0,0.67,0,1.23,0,1.89c-1.3,0-2.53,0-3.87,0c0,0.94,0,1.78,0,2.75c1.65,0,3.27,0,4.98,0
		c0,0.64,0,1.17,0,1.73C194.93,116.58,192.52,116.58,190.08,116.58z"/>
	<path d="M205.47,113.17c0,1.09,0,2.2,0,3.4c-0.75,0-1.4,0-2.15,0c0-3.49,0-6.98,0-10.51c1.89,0,3.8-0.17,5.67,0.05
		c1.63,0.19,2.42,1.5,2.4,3.22c-0.03,1.8-1.15,3.19-2.97,3.53C207.49,113.04,206.52,113.07,205.47,113.17z M205.53,107.63
		c0,1.29,0,2.41,0,3.59c1.23-0.05,2.53,0.35,3.22-0.88c0.28-0.49,0.29-1.4,0.02-1.89C208.05,107.24,206.74,107.74,205.53,107.63z"/>
	<path d="M296.62,105.94c1.65,0,3.21-0.05,4.76,0.01c2.03,0.08,3.24,1.21,3.36,3.03c0.13,1.87-1.03,3.48-2.88,3.86
		c-0.96,0.2-1.96,0.23-3.07,0.35c0,0.56,0,1.11,0,1.66c0,0.55,0,1.11,0,1.74c-0.76,0-1.41,0-2.17,0
		C296.62,113.07,296.62,109.58,296.62,105.94z M298.85,111.2c1.29,0.02,2.6,0.34,3.26-0.9c0.27-0.52,0.23-1.53-0.11-1.98
		c-0.77-0.99-1.98-0.69-3.14-0.6C298.85,108.9,298.85,109.99,298.85,111.2z"/>
	<path d="M235.94,107.62c-1.32,0-2.42,0-3.58,0c0-0.57,0-1.04,0-1.6c3.03,0,6.08,0,9.21,0c0,0.48,0,0.97,0,1.58
		c-1.08,0-2.15,0-3.34,0c-0.04,0.64-0.09,1.18-0.09,1.72c-0.01,1.83-0.01,3.67,0,5.5c0,2.02,0.01,2.02-2.19,1.75
		C235.94,113.66,235.94,110.73,235.94,107.62z"/>
	<path d="M312.56,105.99c0,3.01,0,5.87,0,8.87c1.6,0,3.09,0,4.68,0c0,0.63,0,1.13,0,1.72c-2.27,0-4.52,0-6.87,0
		c0-3.5,0-7.02,0-10.59C311.06,105.99,311.72,105.99,312.56,105.99z"/>
	<path d="M270.85,106c0,3.52,0,7.01,0,10.59c-0.71,0-1.4,0-2.17,0c0-3.54,0-7.02,0-10.59C269.39,106,270.09,106,270.85,106z"/>
	<path d="M224.89,105.99c0.69,0,1.35,0,2.07,0c0,3.56,0,7.05,0,10.62c-0.69,0-1.32,0-2.07,0
		C224.89,113.09,224.89,109.57,224.89,105.99z"/>
</g>
</svg>
